<svg viewBox="0 0 512 512" xmlns="http://www.w3.org/2000/svg"><circle cx="256" cy="256" r="256" fill="#2196F3"/><path d="M277.22 97.344c-52.352-6.624-102.82 11.392-138.53 49.824-35.648 38.432-49.952 90.4-39.232 142.62 12.448 60.48 59.232 108.35 119.2 121.98 12.544 2.88 25.088 4.288 37.472 4.288 24.608 0 48.608-5.6 70.816-16.608 7.904-3.936 11.136-13.536 7.232-21.472-3.968-7.936-13.504-11.104-21.472-7.232-26.72 13.28-56.8 16.672-86.944 9.824-47.04-10.688-85.184-49.792-94.944-97.216-8.64-41.984 2.816-83.68 31.328-114.43 28.544-30.72 68.96-45.216 110.98-39.84 63.232 8.192 110.88 65.6 110.88 133.6v9.312c0 17.664-14.336 32-32 32s-32-14.336-32-32v-64c0-8.832-7.168-16-16-16-6.56 0-12.16 3.968-14.624 9.6-9.536-6.016-20.736-9.6-33.376-9.6-37.696 0-64 29.6-64 72s26.304 72 64 72c19.872 0 36.416-8.384 47.776-22.4 11.744 13.6 28.896 22.4 48.224 22.4 35.296 0 64-28.704 64-64v-9.312c0-84.032-59.648-155.1-138.78-165.34zm-21.216 206.66c-19.744 0-32-15.328-32-40s12.256-40 32-40 32 15.328 32 40-12.256 40-32 40z" fill="#fff"/></svg>