<svg class="icon-logo-hero" xmlns="http://www.w3.org/2000/svg" viewBox="-3627 353 1024 1024"><path d="M-3116.4 353c-282 0-510.6 228.6-510.6 510.6s228.6 510.6 510.6 510.6 510.6-228.6 510.6-510.6S-2834.4 353-3116.4 353zm-7.7 101.4c36.6 0 66.2 29.6 66.2 65.9 0 36.6-29.6 66.2-66.2 66.2-36.3 0-65.9-29.6-65.9-66.2-.1-36.3 29.5-65.9 65.9-65.9zm286.1 213.3l-196.4 24.8.1 196.6 95.2 317.7c5 20.1-7 40.1-26.9 45.1-19.8 5-40.1-6-45.1-26l-97.5-289.2h-30l-89.7 295.2c-7.5 19.3-29 28.1-48.2 20.6-19.1-7.4-30.7-29.1-23.2-48.4l82.4-311.8V692.5l-181-24.6c-18.6-1.5-31.2-17.8-29.7-36.4 1.4-18.7 18.3-32.6 36.8-31.1l219.9 18.9h96.4l234.1-19.3c18.6-.7 34.4 13.7 35 32.5.8 18.5-13.6 34.4-32.2 35.2z"/></svg>