<?xml version="1.0" encoding="UTF-8"?>
<!DOCTYPE svg  PUBLIC '-//W3C//DTD SVG 1.1//EN'  'http://www.w3.org/Graphics/SVG/1.1/DTD/svg11.dtd'>
<svg enable-background="new 0 0 455.731 455.731" version="1.1" viewBox="0 0 455.73 455.73" xml:space="preserve" xmlns="http://www.w3.org/2000/svg">
	<rect width="455.73" height="455.73" fill="#0084B1"/>
	<g fill="#fff">
		<path d="m107.26 69.215c20.873 0.017 38.088 17.257 38.043 38.234-0.05 21.965-18.278 38.52-38.3 38.043-20.308 0.411-38.155-16.551-38.151-38.188 0-20.985 17.282-38.105 38.408-38.089z"/>
		<path d="m129.43 386.47h-44.721c-5.804 0-10.509-4.705-10.509-10.509v-190.78c0-5.804 4.705-10.509 10.509-10.509h44.721c5.804 0 10.509 4.705 10.509 10.509v190.78c-1e-3 5.803-4.705 10.508-10.509 10.508z"/>
		<path d="m386.88 241.68c0-39.996-32.423-72.42-72.42-72.42h-11.47c-21.882 0-41.214 10.918-52.842 27.606-1.268 1.819-2.442 3.708-3.52 5.658-0.373-0.056-0.594-0.085-0.599-0.075v-23.418c0-2.409-1.953-4.363-4.363-4.363h-55.795c-2.409 0-4.363 1.953-4.363 4.363v203.08c0 2.409 1.952 4.362 4.361 4.363l57.011 0.014c2.41 1e-3 4.364-1.953 4.364-4.363v-117.32c0-20.28 16.175-37.119 36.454-37.348 10.352-0.117 19.737 4.031 26.501 10.799 6.675 6.671 10.802 15.895 10.802 26.079v117.81c0 2.409 1.953 4.362 4.361 4.363l57.152 0.014c2.41 1e-3 4.364-1.953 4.364-4.363v-140.47z"/>
	</g>
</svg>
