<?xml version="1.0" encoding="UTF-8"?>
<svg width="364px" height="512px" viewBox="0 0 364 512" xmlns="http://www.w3.org/2000/svg" xmlns:xlink="http://www.w3.org/1999/xlink" version="1.1">
 <!-- Generated by Pixelmator Pro 1.5.5 -->
 <path id="Path" d="M34.4 0 L57.4 0 57.4 22.8 78.6 22.8 78.6 0 101.6 0 101.6 69 78.6 69 78.6 46 57.6 46 57.6 69 34.4 69 M132 23 L111.7 23 111.7 0 175.4 0 175.4 23 155 23 155 69 132 69 M185.5 0 L209.6 0 224.4 24.3 239.2 0 263.3 0 263.3 69 240.3 69 240.3 34.8 224.2 59.6 208.1 34.8 208.1 69 185.5 69 M274.7 0 L297.7 0 297.7 46.2 330.3 46.2 330.3 69 274.7 69" fill="#000000" fill-opacity="1" stroke="none"/>
 <path id="Path-1" d="M33.6 471 L0.6 100.6 363.4 100.6 330.4 470.8 181.7 512" fill="#e44d26" fill-opacity="1" stroke="none"/>
 <path id="Path-2" d="M182 480.5 L182 131 330.3 131 302 447" fill="#f16529" fill-opacity="1" stroke="none"/>
 <path id="Path-3" d="M68 176.3 L182 176.3 182 221.7 117.8 221.7 122 268.2 182 268.2 182 313.5 80.4 313.5 M82.4 336.3 L128 336.3 131.2 372.6 182 386.2 182 433.6 88.8 407.6" fill="#ebebeb" fill-opacity="1" stroke="none"/>
 <path id="Path-4" d="M295.6 176.3 L181.8 176.3 181.8 221.7 291.4 221.7 M287.3 268.2 L181.8 268.2 181.8 313.6 237.8 313.6 232.5 372.6 181.8 386.2 181.8 433.4 274.8 407.6" fill="#ffffff" fill-opacity="1" stroke="none"/>
</svg>
