<svg width="364" height="512" xmlns="http://www.w3.org/2000/svg"><path d="M34.4 0h23v22.8h21.2V0h23v69h-23V46h-21v23H34.4M132 23h-20.3V0h63.7v23H155v46h-23m53.5-69h24.1l14.8 24.3L239.2 0h24.1v69h-23V34.8l-16.1 24.8-16.1-24.8V69h-22.6m89.2-69h23v46.2h32.6V69h-55.6"/><path d="M33.6 471L.6 100.6h362.8l-33 370.2L181.7 512" fill="#e44d26"/><path d="M182 480.5V131h148.3L302 447" fill="#f16529"/><path d="M68 176.3h114v45.4h-64.2l4.2 46.5h60v45.3H80.4m2 22.8H128l3.2 36.3 50.8 13.6v47.4l-93.2-26" fill="#ebebeb"/><path d="M295.6 176.3H181.8v45.4h109.6m-4.1 46.5H181.8v45.4h56l-5.3 59-50.7 13.6v47.2l93-25.8" fill="#fff"/></svg>